<svg width="133" height="56" viewBox="0 0 133 56" fill="none" xmlns="http://www.w3.org/2000/svg">
<rect width="132.045" height="36" rx="4" fill="black"/>
<g clip-path="url(#clip0_14649_93225)">
<path d="M33.0455 10.5H16V25.5H33.0455V10.5Z" fill="white"/>
<path d="M25.6406 14.9604H24.7808C23.5954 14.9604 22.3913 15.2638 22.1985 16.3824H22.1792V13.7852H19.3125V22.2231H22.0078V20.9147H22.0441C22.35 21.8057 23.0763 22.3554 24.8158 22.3554H25.657C29.2887 22.3554 29.7303 21.142 29.7303 19.303V18.0142C29.714 16.175 29.2729 14.9604 25.6407 14.9604H25.6406ZM26.9405 19.0745C26.9405 19.8709 26.8066 20.3258 25.4304 20.3258H23.7494C22.6219 20.3258 22.0096 20.0794 22.0096 18.9987V18.2985C22.0096 17.2163 22.6021 16.9905 23.7494 16.9905H25.4314C26.8076 16.9905 26.942 17.4451 26.942 18.2419L26.9405 19.0745Z" fill="black"/>
</g>
<path d="M38.0789 24V12.2H41.6069C42.3909 12.2 43.1029 12.3413 43.7429 12.624C44.3829 12.9013 44.9322 13.2987 45.3909 13.816C45.8495 14.3333 46.2042 14.9547 46.4549 15.68C46.7055 16.4 46.8309 17.2027 46.8309 18.088C46.8309 18.9733 46.7055 19.7787 46.4549 20.504C46.2042 21.224 45.8495 21.8453 45.3909 22.368C44.9322 22.8907 44.3829 23.2933 43.7429 23.576C43.1029 23.8587 42.3909 24 41.6069 24H38.0789ZM40.1909 23.368L39.2389 22.32H41.3349C41.9749 22.32 42.5455 22.1493 43.0469 21.808C43.5535 21.4613 43.9535 20.9733 44.2469 20.344C44.5402 19.7093 44.6869 18.9573 44.6869 18.088C44.6869 17.2133 44.5402 16.4613 44.2469 15.832C43.9535 15.2027 43.5535 14.72 43.0469 14.384C42.5455 14.048 41.9749 13.88 41.3349 13.88H39.2389L40.1909 12.832V23.368ZM52.7633 24.168C51.8673 24.168 51.0779 23.9813 50.3953 23.608C49.7126 23.2293 49.1766 22.7067 48.7873 22.04C48.4033 21.3733 48.2113 20.6107 48.2113 19.752C48.2113 18.888 48.4033 18.128 48.7873 17.472C49.1766 16.8107 49.7126 16.2933 50.3953 15.92C51.0779 15.5467 51.8673 15.36 52.7633 15.36C53.6593 15.36 54.4486 15.5467 55.1313 15.92C55.8139 16.2933 56.3473 16.8107 56.7313 17.472C57.1206 18.128 57.3153 18.888 57.3153 19.752C57.3153 20.6107 57.1206 21.3733 56.7313 22.04C56.3473 22.7067 55.8139 23.2293 55.1313 23.608C54.4486 23.9813 53.6593 24.168 52.7633 24.168ZM52.7633 22.448C53.2486 22.448 53.6726 22.336 54.0353 22.112C54.3979 21.888 54.6806 21.576 54.8833 21.176C55.0859 20.7707 55.1873 20.296 55.1873 19.752C55.1873 19.208 55.0859 18.7387 54.8833 18.344C54.6806 17.944 54.3979 17.6347 54.0353 17.416C53.6726 17.1973 53.2486 17.088 52.7633 17.088C52.2833 17.088 51.8593 17.1973 51.4913 17.416C51.1286 17.6347 50.8459 17.944 50.6433 18.344C50.4406 18.7387 50.3393 19.208 50.3393 19.752C50.3393 20.296 50.4406 20.7707 50.6433 21.176C50.8459 21.576 51.1286 21.888 51.4913 22.112C51.8593 22.336 52.2833 22.448 52.7633 22.448ZM65.7165 24L63.7405 15.504H65.3485L67.2765 23.336H66.9325L68.1645 15.504H70.3485L68.6045 24H65.7165ZM59.8605 24L58.1085 15.504H60.2925L61.5325 23.336H61.1885L63.1005 15.504H64.7085L62.7645 24H59.8605ZM77.7203 24V20.232C77.7203 20.0187 77.7203 19.832 77.7203 19.672C77.7203 19.5067 77.7203 19.3573 77.7203 19.224C77.7203 18.84 77.6643 18.496 77.5523 18.192C77.4456 17.8827 77.2589 17.64 76.9923 17.464C76.7309 17.288 76.3683 17.2 75.9043 17.2C75.4989 17.2 75.1389 17.2987 74.8243 17.496C74.5096 17.688 74.2616 17.9547 74.0803 18.296C73.9043 18.632 73.8163 19.0213 73.8163 19.464L73.1043 19.024C73.1043 18.3147 73.2643 17.6853 73.5843 17.136C73.9096 16.5813 74.3443 16.1467 74.8883 15.832C75.4323 15.5173 76.0349 15.36 76.6963 15.36C77.3789 15.36 77.9523 15.4933 78.4163 15.76C78.8856 16.0267 79.2376 16.4053 79.4722 16.896C79.7123 17.3867 79.8323 17.9627 79.8323 18.624C79.8323 18.88 79.8323 19.168 79.8323 19.488C79.8323 19.808 79.8323 20.1227 79.8323 20.432V24H77.7203ZM71.7122 24V15.504H73.8163V24H71.7122ZM84.0449 11.496V24H81.9729V11.496H84.0449ZM90.3726 24.168C89.4766 24.168 88.6873 23.9813 88.0046 23.608C87.322 23.2293 86.786 22.7067 86.3966 22.04C86.0126 21.3733 85.8206 20.6107 85.8206 19.752C85.8206 18.888 86.0126 18.128 86.3966 17.472C86.786 16.8107 87.322 16.2933 88.0046 15.92C88.6873 15.5467 89.4766 15.36 90.3726 15.36C91.2686 15.36 92.058 15.5467 92.7406 15.92C93.4233 16.2933 93.9566 16.8107 94.3406 17.472C94.73 18.128 94.9246 18.888 94.9246 19.752C94.9246 20.6107 94.73 21.3733 94.3406 22.04C93.9566 22.7067 93.4233 23.2293 92.7406 23.608C92.058 23.9813 91.2686 24.168 90.3726 24.168ZM90.3726 22.448C90.858 22.448 91.282 22.336 91.6446 22.112C92.0073 21.888 92.29 21.576 92.4926 21.176C92.6953 20.7707 92.7966 20.296 92.7966 19.752C92.7966 19.208 92.6953 18.7387 92.4926 18.344C92.29 17.944 92.0073 17.6347 91.6446 17.416C91.282 17.1973 90.858 17.088 90.3726 17.088C89.8926 17.088 89.4686 17.1973 89.1006 17.416C88.738 17.6347 88.4553 17.944 88.2526 18.344C88.05 18.7387 87.9486 19.208 87.9486 19.752C87.9486 20.296 88.05 20.7707 88.2526 21.176C88.4553 21.576 88.738 21.888 89.1006 22.112C89.4686 22.336 89.8926 22.448 90.3726 22.448ZM99.5774 24.176C98.9427 24.176 98.3854 24.0773 97.9054 23.88C97.4254 23.6773 97.0494 23.3867 96.7774 23.008C96.5054 22.6293 96.3694 22.1733 96.3694 21.64C96.3694 21.0587 96.5267 20.5813 96.8414 20.208C97.1614 19.8293 97.5907 19.5387 98.1294 19.336C98.668 19.128 99.2654 18.9947 99.9214 18.936C100.892 18.84 101.569 18.7493 101.953 18.664C102.343 18.5733 102.537 18.4293 102.537 18.232C102.537 18.2267 102.537 18.224 102.537 18.224C102.537 18.2187 102.537 18.216 102.537 18.216C102.537 17.8427 102.369 17.5547 102.033 17.352C101.697 17.1493 101.223 17.048 100.609 17.048C99.964 17.048 99.468 17.1627 99.1214 17.392C98.78 17.616 98.6094 17.9733 98.6094 18.464H96.5294C96.5294 17.7973 96.7054 17.2347 97.0574 16.776C97.4147 16.312 97.9027 15.96 98.5214 15.72C99.14 15.48 99.8414 15.36 100.625 15.36C101.356 15.36 102.025 15.4693 102.633 15.688C103.241 15.9067 103.729 16.2373 104.097 16.68C104.465 17.1227 104.649 17.6747 104.649 18.336C104.649 18.448 104.649 18.56 104.649 18.672C104.649 18.784 104.649 18.896 104.649 19.008V22.208C104.649 22.4107 104.655 22.6107 104.665 22.808C104.681 23 104.711 23.1733 104.753 23.328C104.807 23.4987 104.871 23.6427 104.945 23.76C105.02 23.8773 105.079 23.9573 105.121 24H103.041C103.004 23.9627 102.951 23.8907 102.881 23.784C102.817 23.672 102.759 23.544 102.705 23.4C102.652 23.24 102.612 23.0693 102.585 22.888C102.559 22.7013 102.545 22.496 102.545 22.272L102.961 22.56C102.801 22.8853 102.556 23.1707 102.225 23.416C101.9 23.656 101.511 23.8427 101.057 23.976C100.604 24.1093 100.111 24.176 99.5774 24.176ZM100.089 22.52C100.527 22.52 100.932 22.4453 101.305 22.296C101.679 22.1467 101.98 21.9173 102.209 21.608C102.439 21.2933 102.553 20.8907 102.553 20.4V19.264L103.065 19.84C102.724 19.968 102.313 20.0747 101.833 20.16C101.353 20.24 100.868 20.304 100.377 20.352C99.748 20.4107 99.2734 20.52 98.9534 20.68C98.6387 20.84 98.4814 21.1013 98.4814 21.464C98.4814 21.816 98.6147 22.08 98.8814 22.256C99.148 22.432 99.5507 22.52 100.089 22.52ZM110.131 24.176C109.432 24.176 108.784 24.008 108.187 23.672C107.595 23.3307 107.12 22.8293 106.763 22.168C106.406 21.5067 106.227 20.6933 106.227 19.728C106.227 18.7893 106.408 17.9947 106.771 17.344C107.139 16.6933 107.619 16.2 108.211 15.864C108.808 15.528 109.448 15.36 110.131 15.36C110.798 15.36 111.414 15.5253 111.979 15.856C112.544 16.1813 112.998 16.6347 113.339 17.216C113.68 17.7973 113.851 18.464 113.851 19.216C113.851 19.2373 113.851 19.2587 113.851 19.28C113.851 19.3013 113.851 19.3227 113.851 19.344L112.811 19.368C112.811 19.352 112.811 19.336 112.811 19.32C112.811 19.2987 112.811 19.28 112.811 19.264C112.811 18.8427 112.704 18.4747 112.491 18.16C112.283 17.8453 112.011 17.6 111.675 17.424C111.344 17.2427 110.992 17.152 110.619 17.152C110.006 17.152 109.483 17.36 109.051 17.776C108.619 18.1867 108.403 18.8373 108.403 19.728C108.403 20.6133 108.619 21.2667 109.051 21.688C109.483 22.1093 110.006 22.32 110.619 22.32C111.008 22.32 111.368 22.2267 111.699 22.04C112.03 21.8533 112.296 21.5973 112.499 21.272C112.707 20.9413 112.811 20.5627 112.811 20.136L113.851 20.184C113.851 20.9307 113.683 21.608 113.347 22.216C113.016 22.8187 112.571 23.296 112.011 23.648C111.451 24 110.824 24.176 110.131 24.176ZM112.811 24V11.496H114.923V24H112.811Z" fill="white"/>
<path d="M2.112 51H0.81V42.15H3.474C4.154 42.15 4.724 42.278 5.184 42.534C5.648 42.79 5.996 43.136 6.228 43.572C6.464 44.004 6.582 44.488 6.582 45.024C6.582 45.56 6.462 46.054 6.222 46.506C5.986 46.954 5.636 47.314 5.172 47.586C4.708 47.858 4.142 47.994 3.474 47.994H2.112V51ZM2.112 47.55L1.524 46.914H3.324C3.748 46.914 4.104 46.838 4.392 46.686C4.684 46.53 4.904 46.31 5.052 46.026C5.2 45.742 5.274 45.408 5.274 45.024C5.274 44.64 5.202 44.314 5.058 44.046C4.914 43.778 4.698 43.576 4.41 43.44C4.122 43.3 3.76 43.23 3.324 43.23H1.524L2.112 42.546V47.55ZM10.6917 51.12C10.0357 51.12 9.45572 50.978 8.95172 50.694C8.45172 50.41 8.05972 50.02 7.77572 49.524C7.49572 49.024 7.35572 48.452 7.35572 47.808C7.35572 47.168 7.49572 46.602 7.77572 46.11C8.05972 45.614 8.45172 45.228 8.95172 44.952C9.45572 44.672 10.0357 44.532 10.6917 44.532C11.3477 44.532 11.9257 44.672 12.4257 44.952C12.9297 45.228 13.3217 45.614 13.6017 46.11C13.8857 46.602 14.0277 47.168 14.0277 47.808C14.0277 48.452 13.8857 49.024 13.6017 49.524C13.3217 50.02 12.9297 50.41 12.4257 50.694C11.9257 50.978 11.3477 51.12 10.6917 51.12ZM10.6917 50.004C11.0917 50.004 11.4437 49.914 11.7477 49.734C12.0517 49.554 12.2897 49.3 12.4617 48.972C12.6337 48.64 12.7197 48.252 12.7197 47.808C12.7197 47.368 12.6337 46.986 12.4617 46.662C12.2897 46.338 12.0517 46.088 11.7477 45.912C11.4437 45.736 11.0917 45.648 10.6917 45.648C10.2957 45.648 9.94372 45.736 9.63572 45.912C9.33172 46.088 9.09372 46.338 8.92172 46.662C8.74972 46.986 8.66372 47.368 8.66372 47.808C8.66372 48.252 8.74972 48.64 8.92172 48.972C9.09372 49.3 9.33172 49.554 9.63572 49.734C9.94372 49.914 10.2957 50.004 10.6917 50.004ZM20.4489 51L18.8169 44.628H19.8729L21.4389 50.526H21.2169L22.2369 44.628H23.5869L22.2429 51H20.4489ZM16.0989 51L14.7489 44.628H16.0989L17.1309 50.526H16.9029L18.4569 44.628H19.5129L17.9049 51H16.0989ZM25.1031 48.27V47.256H29.7951L29.6151 47.556C29.6151 47.532 29.6151 47.508 29.6151 47.484C29.6151 47.456 29.6151 47.432 29.6151 47.412C29.6151 47.088 29.5451 46.79 29.4051 46.518C29.2651 46.242 29.0551 46.022 28.7751 45.858C28.4991 45.69 28.1531 45.606 27.7371 45.606C27.3211 45.606 26.9551 45.696 26.6391 45.876C26.3271 46.052 26.0831 46.304 25.9071 46.632C25.7351 46.956 25.6491 47.346 25.6491 47.802C25.6491 48.266 25.7331 48.666 25.9011 49.002C26.0691 49.334 26.3111 49.59 26.6271 49.77C26.9431 49.95 27.3211 50.04 27.7611 50.04C28.0691 50.04 28.3351 50.01 28.5591 49.95C28.7871 49.886 28.9731 49.802 29.1171 49.698C29.2651 49.594 29.3771 49.482 29.4531 49.362C29.5291 49.238 29.5731 49.116 29.5851 48.996H30.8811C30.8571 49.256 30.7711 49.514 30.6231 49.77C30.4791 50.022 30.2731 50.252 30.0051 50.46C29.7411 50.664 29.4171 50.828 29.0331 50.952C28.6531 51.072 28.2151 51.132 27.7191 51.132C27.0551 51.132 26.4731 50.992 25.9731 50.712C25.4731 50.432 25.0831 50.044 24.8031 49.548C24.5231 49.048 24.3831 48.476 24.3831 47.832C24.3831 47.176 24.5251 46.6 24.8091 46.104C25.0931 45.608 25.4871 45.222 25.9911 44.946C26.4951 44.666 27.0731 44.526 27.7251 44.526C28.3891 44.526 28.9631 44.666 29.4471 44.946C29.9351 45.226 30.3111 45.612 30.5751 46.104C30.8391 46.596 30.9711 47.162 30.9711 47.802C30.9711 47.878 30.9691 47.966 30.9651 48.066C30.9611 48.166 30.9551 48.234 30.9471 48.27H25.1031ZM32.4223 51V44.628H33.7243V46.662L33.3763 46.506C33.4043 46.246 33.4703 45.998 33.5743 45.762C33.6783 45.526 33.8163 45.316 33.9883 45.132C34.1643 44.944 34.3803 44.796 34.6363 44.688C34.8923 44.58 35.1883 44.526 35.5243 44.526C35.7803 44.526 35.9863 44.546 36.1423 44.586C36.3023 44.626 36.4003 44.658 36.4363 44.682L36.1603 45.906C36.1203 45.878 36.0383 45.842 35.9143 45.798C35.7943 45.754 35.6263 45.732 35.4103 45.732C35.0823 45.732 34.8103 45.79 34.5943 45.906C34.3783 46.022 34.2063 46.176 34.0783 46.368C33.9503 46.56 33.8583 46.77 33.8023 46.998C33.7503 47.222 33.7243 47.448 33.7243 47.676V51H32.4223ZM37.8296 48.27V47.256H42.5216L42.3416 47.556C42.3416 47.532 42.3416 47.508 42.3416 47.484C42.3416 47.456 42.3416 47.432 42.3416 47.412C42.3416 47.088 42.2716 46.79 42.1316 46.518C41.9916 46.242 41.7816 46.022 41.5016 45.858C41.2256 45.69 40.8796 45.606 40.4636 45.606C40.0476 45.606 39.6816 45.696 39.3656 45.876C39.0536 46.052 38.8096 46.304 38.6336 46.632C38.4616 46.956 38.3756 47.346 38.3756 47.802C38.3756 48.266 38.4596 48.666 38.6276 49.002C38.7956 49.334 39.0376 49.59 39.3536 49.77C39.6696 49.95 40.0476 50.04 40.4876 50.04C40.7956 50.04 41.0616 50.01 41.2856 49.95C41.5136 49.886 41.6996 49.802 41.8436 49.698C41.9916 49.594 42.1036 49.482 42.1796 49.362C42.2556 49.238 42.2996 49.116 42.3116 48.996H43.6076C43.5836 49.256 43.4976 49.514 43.3496 49.77C43.2056 50.022 42.9996 50.252 42.7316 50.46C42.4676 50.664 42.1436 50.828 41.7596 50.952C41.3796 51.072 40.9416 51.132 40.4456 51.132C39.7816 51.132 39.1996 50.992 38.6996 50.712C38.1996 50.432 37.8096 50.044 37.5296 49.548C37.2496 49.048 37.1096 48.476 37.1096 47.832C37.1096 47.176 37.2516 46.6 37.5356 46.104C37.8196 45.608 38.2136 45.222 38.7176 44.946C39.2216 44.666 39.7996 44.526 40.4516 44.526C41.1156 44.526 41.6896 44.666 42.1736 44.946C42.6616 45.226 43.0376 45.612 43.3016 46.104C43.5656 46.596 43.6976 47.162 43.6976 47.802C43.6976 47.878 43.6956 47.966 43.6916 48.066C43.6876 48.166 43.6816 48.234 43.6736 48.27H37.8296ZM47.7889 51.126C47.2649 51.126 46.7829 51 46.3429 50.748C45.9029 50.492 45.5509 50.116 45.2869 49.62C45.0229 49.124 44.8909 48.518 44.8909 47.802C44.8909 47.102 45.0249 46.508 45.2929 46.02C45.5609 45.532 45.9149 45.162 46.3549 44.91C46.7949 44.654 47.2729 44.526 47.7889 44.526C48.2849 44.526 48.7449 44.646 49.1689 44.886C49.5969 45.126 49.9409 45.46 50.2009 45.888C50.4609 46.312 50.5909 46.802 50.5909 47.358C50.5909 47.374 50.5909 47.39 50.5909 47.406C50.5909 47.418 50.5909 47.43 50.5909 47.442L49.8349 47.466C49.8349 47.454 49.8349 47.442 49.8349 47.43C49.8349 47.414 49.8349 47.4 49.8349 47.388C49.8349 47.056 49.7509 46.762 49.5829 46.506C49.4149 46.246 49.1929 46.042 48.9169 45.894C48.6449 45.742 48.3549 45.666 48.0469 45.666C47.5309 45.666 47.0989 45.84 46.7509 46.188C46.4029 46.532 46.2289 47.07 46.2289 47.802C46.2289 48.53 46.4029 49.07 46.7509 49.422C47.1029 49.77 47.5349 49.944 48.0469 49.944C48.3669 49.944 48.6629 49.868 48.9349 49.716C49.2069 49.56 49.4249 49.348 49.5889 49.08C49.7529 48.812 49.8349 48.506 49.8349 48.162L50.5909 48.192C50.5909 48.744 50.4649 49.242 50.2129 49.686C49.9649 50.13 49.6289 50.482 49.2049 50.742C48.7849 50.998 48.3129 51.126 47.7889 51.126ZM49.8349 51V41.622H51.1429V51H49.8349ZM59.1669 51.126C58.6709 51.126 58.2109 51.002 57.7869 50.754C57.3629 50.502 57.0189 50.158 56.7549 49.722C56.4949 49.286 56.3649 48.792 56.3649 48.24C56.3649 48.224 56.3649 48.212 56.3649 48.204C56.3649 48.192 56.3649 48.18 56.3649 48.168L57.1209 48.15C57.1209 48.158 57.1209 48.168 57.1209 48.18C57.1209 48.188 57.1209 48.198 57.1209 48.21C57.1209 48.538 57.2049 48.834 57.3729 49.098C57.5449 49.358 57.7669 49.564 58.0389 49.716C58.3109 49.868 58.6029 49.944 58.9149 49.944C59.4269 49.944 59.8569 49.77 60.2049 49.422C60.5569 49.07 60.7329 48.53 60.7329 47.802C60.7329 47.07 60.5589 46.532 60.2109 46.188C59.8629 45.84 59.4309 45.666 58.9149 45.666C58.6029 45.666 58.3109 45.742 58.0389 45.894C57.7669 46.042 57.5449 46.246 57.3729 46.506C57.2049 46.762 57.1209 47.056 57.1209 47.388L56.3649 47.358C56.3649 46.802 56.4949 46.312 56.7549 45.888C57.0189 45.46 57.3629 45.126 57.7869 44.886C58.2109 44.646 58.6709 44.526 59.1669 44.526C59.6829 44.526 60.1609 44.654 60.6009 44.91C61.0409 45.162 61.3949 45.532 61.6629 46.02C61.9349 46.508 62.0709 47.102 62.0709 47.802C62.0709 48.518 61.9389 49.124 61.6749 49.62C61.4109 50.116 61.0589 50.492 60.6189 50.748C60.1789 51 59.6949 51.126 59.1669 51.126ZM55.8129 51V41.622H57.1209V51H55.8129ZM63.4549 53.712C63.2829 53.712 63.1249 53.702 62.9809 53.682C62.8409 53.666 62.7549 53.65 62.7229 53.634V52.572C62.7749 52.596 62.8609 52.616 62.9809 52.632C63.1049 52.648 63.2329 52.656 63.3649 52.656C63.6009 52.656 63.8029 52.608 63.9709 52.512C64.1429 52.416 64.2869 52.282 64.4029 52.11C64.5229 51.942 64.6189 51.75 64.6909 51.534L64.8529 51.054L62.6569 44.628H64.0129L65.6509 50.028H65.4829L67.0789 44.628H68.4169L66.1309 51.468C65.9909 51.896 65.8189 52.278 65.6149 52.614C65.4109 52.954 65.1389 53.222 64.7989 53.418C64.4589 53.614 64.0109 53.712 63.4549 53.712ZM75.643 42.15C76.215 42.15 76.693 42.23 77.077 42.39C77.465 42.546 77.759 42.782 77.959 43.098C78.159 43.41 78.259 43.8 78.259 44.268C78.259 44.716 78.167 45.094 77.983 45.402C77.803 45.706 77.571 45.938 77.287 46.098C77.007 46.258 76.719 46.348 76.423 46.368C76.743 46.376 77.059 46.452 77.371 46.596C77.687 46.736 77.947 46.964 78.151 47.28C78.355 47.592 78.457 48.01 78.457 48.534C78.457 49.038 78.355 49.476 78.151 49.848C77.951 50.216 77.641 50.5 77.221 50.7C76.801 50.9 76.261 51 75.601 51H72.517V42.15H75.643ZM73.771 46.278L73.333 45.87H75.133C75.717 45.87 76.167 45.75 76.483 45.51C76.799 45.27 76.957 44.926 76.957 44.478C76.957 44.174 76.891 43.932 76.759 43.752C76.627 43.568 76.437 43.436 76.189 43.356C75.945 43.272 75.655 43.23 75.319 43.23H73.183L73.771 42.546V46.278ZM75.349 49.92C75.909 49.92 76.345 49.796 76.657 49.548C76.973 49.296 77.131 48.934 77.131 48.462C77.131 48.178 77.079 47.94 76.975 47.748C76.875 47.552 76.737 47.396 76.561 47.28C76.385 47.164 76.181 47.08 75.949 47.028C75.717 46.972 75.469 46.944 75.205 46.944H73.333L73.771 46.536V50.604L73.183 49.92H75.349ZM79.959 51V42.15H81.243V51H79.959ZM89.1281 42.15H91.3541V51H90.1181V43.062L90.1541 43.074L88.0721 51H86.2841L84.1841 43.068L84.2201 43.05V51H82.9781V42.15H85.2041L87.1901 50.16H87.1301L89.1281 42.15ZM96.1917 51.12C95.5357 51.12 94.9557 50.978 94.4517 50.694C93.9517 50.41 93.5597 50.02 93.2757 49.524C92.9957 49.024 92.8557 48.452 92.8557 47.808C92.8557 47.168 92.9957 46.602 93.2757 46.11C93.5597 45.614 93.9517 45.228 94.4517 44.952C94.9557 44.672 95.5357 44.532 96.1917 44.532C96.8477 44.532 97.4257 44.672 97.9257 44.952C98.4297 45.228 98.8217 45.614 99.1017 46.11C99.3857 46.602 99.5277 47.168 99.5277 47.808C99.5277 48.452 99.3857 49.024 99.1017 49.524C98.8217 50.02 98.4297 50.41 97.9257 50.694C97.4257 50.978 96.8477 51.12 96.1917 51.12ZM96.1917 50.004C96.5917 50.004 96.9437 49.914 97.2477 49.734C97.5517 49.554 97.7897 49.3 97.9617 48.972C98.1337 48.64 98.2197 48.252 98.2197 47.808C98.2197 47.368 98.1337 46.986 97.9617 46.662C97.7897 46.338 97.5517 46.088 97.2477 45.912C96.9437 45.736 96.5917 45.648 96.1917 45.648C95.7957 45.648 95.4437 45.736 95.1357 45.912C94.8317 46.088 94.5937 46.338 94.4217 46.662C94.2497 46.986 94.1637 47.368 94.1637 47.808C94.1637 48.252 94.2497 48.64 94.4217 48.972C94.5937 49.3 94.8317 49.554 95.1357 49.734C95.4437 49.914 95.7957 50.004 96.1917 50.004ZM104.331 51.126C103.835 51.126 103.375 51.002 102.951 50.754C102.527 50.502 102.183 50.158 101.919 49.722C101.659 49.286 101.529 48.792 101.529 48.24C101.529 48.224 101.529 48.212 101.529 48.204C101.529 48.192 101.529 48.18 101.529 48.168L102.285 48.15C102.285 48.158 102.285 48.168 102.285 48.18C102.285 48.188 102.285 48.198 102.285 48.21C102.285 48.538 102.369 48.834 102.537 49.098C102.709 49.358 102.931 49.564 103.203 49.716C103.475 49.868 103.767 49.944 104.079 49.944C104.591 49.944 105.021 49.77 105.369 49.422C105.721 49.07 105.897 48.53 105.897 47.802C105.897 47.07 105.723 46.532 105.375 46.188C105.027 45.84 104.595 45.666 104.079 45.666C103.767 45.666 103.475 45.742 103.203 45.894C102.931 46.042 102.709 46.246 102.537 46.506C102.369 46.762 102.285 47.056 102.285 47.388L101.529 47.358C101.529 46.802 101.659 46.312 101.919 45.888C102.183 45.46 102.527 45.126 102.951 44.886C103.375 44.646 103.835 44.526 104.331 44.526C104.847 44.526 105.325 44.654 105.765 44.91C106.205 45.162 106.559 45.532 106.827 46.02C107.099 46.508 107.235 47.102 107.235 47.802C107.235 48.518 107.103 49.124 106.839 49.62C106.575 50.116 106.223 50.492 105.783 50.748C105.343 51 104.859 51.126 104.331 51.126ZM100.977 51V41.622H102.285V51H100.977ZM107.668 53.7C107.556 53.7 107.45 53.696 107.35 53.688C107.25 53.68 107.168 53.67 107.104 53.658V52.68C107.168 52.696 107.252 52.71 107.356 52.722C107.456 52.734 107.56 52.74 107.668 52.74C107.92 52.74 108.118 52.702 108.262 52.626C108.41 52.554 108.518 52.458 108.586 52.338C108.658 52.222 108.704 52.092 108.724 51.948C108.748 51.804 108.76 51.664 108.76 51.528V44.628H110.062V51.57C110.062 51.834 110.034 52.092 109.978 52.344C109.922 52.596 109.812 52.824 109.648 53.028C109.488 53.232 109.25 53.394 108.934 53.514C108.618 53.638 108.196 53.7 107.668 53.7ZM109.432 43.308C109.212 43.308 109.02 43.248 108.856 43.128C108.692 43.004 108.61 42.834 108.61 42.618C108.61 42.406 108.692 42.24 108.856 42.12C109.02 41.996 109.212 41.934 109.432 41.934C109.656 41.934 109.848 41.996 110.008 42.12C110.172 42.24 110.254 42.406 110.254 42.618C110.254 42.834 110.172 43.004 110.008 43.128C109.848 43.248 109.656 43.308 109.432 43.308ZM112.267 48.27V47.256H116.959L116.779 47.556C116.779 47.532 116.779 47.508 116.779 47.484C116.779 47.456 116.779 47.432 116.779 47.412C116.779 47.088 116.709 46.79 116.569 46.518C116.429 46.242 116.219 46.022 115.939 45.858C115.663 45.69 115.317 45.606 114.901 45.606C114.485 45.606 114.119 45.696 113.803 45.876C113.491 46.052 113.247 46.304 113.071 46.632C112.899 46.956 112.813 47.346 112.813 47.802C112.813 48.266 112.897 48.666 113.065 49.002C113.233 49.334 113.475 49.59 113.791 49.77C114.107 49.95 114.485 50.04 114.925 50.04C115.233 50.04 115.499 50.01 115.723 49.95C115.951 49.886 116.137 49.802 116.281 49.698C116.429 49.594 116.541 49.482 116.617 49.362C116.693 49.238 116.737 49.116 116.749 48.996H118.045C118.021 49.256 117.935 49.514 117.787 49.77C117.643 50.022 117.437 50.252 117.169 50.46C116.905 50.664 116.581 50.828 116.197 50.952C115.817 51.072 115.379 51.132 114.883 51.132C114.219 51.132 113.637 50.992 113.137 50.712C112.637 50.432 112.247 50.044 111.967 49.548C111.687 49.048 111.547 48.476 111.547 47.832C111.547 47.176 111.689 46.6 111.973 46.104C112.257 45.608 112.651 45.222 113.155 44.946C113.659 44.666 114.237 44.526 114.889 44.526C115.553 44.526 116.127 44.666 116.611 44.946C117.099 45.226 117.475 45.612 117.739 46.104C118.003 46.596 118.135 47.162 118.135 47.802C118.135 47.878 118.133 47.966 118.129 48.066C118.125 48.166 118.119 48.234 118.111 48.27H112.267ZM122.676 51.126C122.036 51.126 121.462 50.992 120.954 50.724C120.45 50.452 120.052 50.066 119.76 49.566C119.472 49.066 119.328 48.478 119.328 47.802C119.328 47.126 119.472 46.544 119.76 46.056C120.052 45.564 120.45 45.186 120.954 44.922C121.462 44.658 122.036 44.526 122.676 44.526C123.16 44.526 123.59 44.6 123.966 44.748C124.342 44.892 124.66 45.084 124.92 45.324C125.18 45.564 125.378 45.828 125.514 46.116C125.65 46.404 125.718 46.692 125.718 46.98C125.718 46.984 125.718 46.99 125.718 46.998C125.718 47.006 125.718 47.014 125.718 47.022H124.428C124.428 47.002 124.426 46.98 124.422 46.956C124.418 46.928 124.414 46.902 124.41 46.878C124.378 46.642 124.286 46.432 124.134 46.248C123.982 46.064 123.782 45.918 123.534 45.81C123.286 45.702 122.996 45.648 122.664 45.648C122.3 45.648 121.964 45.728 121.656 45.888C121.352 46.044 121.108 46.282 120.924 46.602C120.74 46.922 120.648 47.322 120.648 47.802C120.648 48.282 120.738 48.686 120.918 49.014C121.102 49.338 121.346 49.584 121.65 49.752C121.958 49.92 122.296 50.004 122.664 50.004C123.06 50.004 123.384 49.944 123.636 49.824C123.888 49.7 124.078 49.536 124.206 49.332C124.334 49.124 124.408 48.9 124.428 48.66H125.718C125.718 48.948 125.652 49.24 125.52 49.536C125.388 49.828 125.194 50.094 124.938 50.334C124.682 50.574 124.364 50.766 123.984 50.91C123.608 51.054 123.172 51.126 122.676 51.126ZM129.775 51.108C129.563 51.108 129.351 51.086 129.139 51.042C128.931 50.998 128.739 50.918 128.563 50.802C128.391 50.682 128.253 50.512 128.149 50.292C128.045 50.072 127.993 49.784 127.993 49.428C127.993 49.344 127.993 49.256 127.993 49.164C127.993 49.072 127.993 48.978 127.993 48.882V45.708H126.463V44.628H127.267C127.439 44.628 127.573 44.622 127.669 44.61C127.769 44.594 127.841 44.56 127.885 44.508C127.933 44.452 127.963 44.364 127.975 44.244C127.987 44.124 127.993 43.96 127.993 43.752V42.522H129.295V44.628H131.245V45.708H129.295V48.534C129.295 48.614 129.295 48.694 129.295 48.774C129.295 48.854 129.295 48.928 129.295 48.996C129.295 49.316 129.333 49.568 129.409 49.752C129.489 49.936 129.669 50.028 129.949 50.028C130.069 50.028 130.183 50.018 130.291 49.998C130.399 49.978 130.481 49.956 130.537 49.932V50.994C130.465 51.022 130.363 51.048 130.231 51.072C130.099 51.096 129.947 51.108 129.775 51.108Z" fill="#A0A0A0"/>
<defs>
<clipPath id="clip0_14649_93225">
<rect x="16" y="10.5" width="17.0455" height="15" rx="1.36364" fill="white"/>
</clipPath>
</defs>
</svg>
