<svg width="365" height="56" viewBox="0 0 365 56" fill="none" xmlns="http://www.w3.org/2000/svg">
<rect width="365" height="36" rx="4" fill="black"/>
<g clip-path="url(#clip0_14649_93270)">
<path d="M149.522 10.5H132.477V25.5H149.522V10.5Z" fill="white"/>
<path d="M142.117 14.9604H141.257C140.072 14.9604 138.868 15.2638 138.675 16.3824H138.656V13.7852H135.789V22.2231H138.484V20.9147H138.521C138.827 21.8057 139.553 22.3554 141.292 22.3554H142.134C145.765 22.3554 146.207 21.142 146.207 19.303V18.0142C146.191 16.175 145.749 14.9604 142.117 14.9604H142.117ZM143.417 19.0745C143.417 19.8709 143.283 20.3258 141.907 20.3258H140.226C139.098 20.3258 138.486 20.0794 138.486 18.9987V18.2985C138.486 17.2163 139.079 16.9905 140.226 16.9905H141.908C143.284 16.9905 143.419 17.4451 143.419 18.2419L143.417 19.0745Z" fill="black"/>
</g>
<path d="M154.555 24V12.2H158.083C158.867 12.2 159.579 12.3413 160.219 12.624C160.859 12.9013 161.409 13.2987 161.867 13.816C162.326 14.3333 162.681 14.9547 162.931 15.68C163.182 16.4 163.307 17.2027 163.307 18.088C163.307 18.9733 163.182 19.7787 162.931 20.504C162.681 21.224 162.326 21.8453 161.867 22.368C161.409 22.8907 160.859 23.2933 160.219 23.576C159.579 23.8587 158.867 24 158.083 24H154.555ZM156.667 23.368L155.715 22.32H157.811C158.451 22.32 159.022 22.1493 159.523 21.808C160.03 21.4613 160.43 20.9733 160.723 20.344C161.017 19.7093 161.163 18.9573 161.163 18.088C161.163 17.2133 161.017 16.4613 160.723 15.832C160.43 15.2027 160.03 14.72 159.523 14.384C159.022 14.048 158.451 13.88 157.811 13.88H155.715L156.667 12.832V23.368ZM169.24 24.168C168.344 24.168 167.554 23.9813 166.872 23.608C166.189 23.2293 165.653 22.7067 165.264 22.04C164.88 21.3733 164.688 20.6107 164.688 19.752C164.688 18.888 164.88 18.128 165.264 17.472C165.653 16.8107 166.189 16.2933 166.872 15.92C167.554 15.5467 168.344 15.36 169.24 15.36C170.136 15.36 170.925 15.5467 171.608 15.92C172.29 16.2933 172.824 16.8107 173.208 17.472C173.597 18.128 173.792 18.888 173.792 19.752C173.792 20.6107 173.597 21.3733 173.208 22.04C172.824 22.7067 172.29 23.2293 171.608 23.608C170.925 23.9813 170.136 24.168 169.24 24.168ZM169.24 22.448C169.725 22.448 170.149 22.336 170.512 22.112C170.874 21.888 171.157 21.576 171.36 21.176C171.562 20.7707 171.664 20.296 171.664 19.752C171.664 19.208 171.562 18.7387 171.36 18.344C171.157 17.944 170.874 17.6347 170.512 17.416C170.149 17.1973 169.725 17.088 169.24 17.088C168.76 17.088 168.336 17.1973 167.968 17.416C167.605 17.6347 167.322 17.944 167.12 18.344C166.917 18.7387 166.816 19.208 166.816 19.752C166.816 20.296 166.917 20.7707 167.12 21.176C167.322 21.576 167.605 21.888 167.968 22.112C168.336 22.336 168.76 22.448 169.24 22.448ZM182.193 24L180.217 15.504H181.825L183.753 23.336H183.409L184.641 15.504H186.825L185.081 24H182.193ZM176.337 24L174.585 15.504H176.769L178.009 23.336H177.665L179.577 15.504H181.185L179.241 24H176.337ZM194.197 24V20.232C194.197 20.0187 194.197 19.832 194.197 19.672C194.197 19.5067 194.197 19.3573 194.197 19.224C194.197 18.84 194.141 18.496 194.029 18.192C193.922 17.8827 193.735 17.64 193.469 17.464C193.207 17.288 192.845 17.2 192.381 17.2C191.975 17.2 191.615 17.2987 191.301 17.496C190.986 17.688 190.738 17.9547 190.557 18.296C190.381 18.632 190.293 19.0213 190.293 19.464L189.581 19.024C189.581 18.3147 189.741 17.6853 190.061 17.136C190.386 16.5813 190.821 16.1467 191.365 15.832C191.909 15.5173 192.511 15.36 193.173 15.36C193.855 15.36 194.429 15.4933 194.893 15.76C195.362 16.0267 195.714 16.4053 195.949 16.896C196.189 17.3867 196.309 17.9627 196.309 18.624C196.309 18.88 196.309 19.168 196.309 19.488C196.309 19.808 196.309 20.1227 196.309 20.432V24H194.197ZM188.189 24V15.504H190.293V24H188.189ZM200.521 11.496V24H198.449V11.496H200.521ZM206.849 24.168C205.953 24.168 205.164 23.9813 204.481 23.608C203.799 23.2293 203.263 22.7067 202.873 22.04C202.489 21.3733 202.297 20.6107 202.297 19.752C202.297 18.888 202.489 18.128 202.873 17.472C203.263 16.8107 203.799 16.2933 204.481 15.92C205.164 15.5467 205.953 15.36 206.849 15.36C207.745 15.36 208.535 15.5467 209.217 15.92C209.9 16.2933 210.433 16.8107 210.817 17.472C211.207 18.128 211.401 18.888 211.401 19.752C211.401 20.6107 211.207 21.3733 210.817 22.04C210.433 22.7067 209.9 23.2293 209.217 23.608C208.535 23.9813 207.745 24.168 206.849 24.168ZM206.849 22.448C207.335 22.448 207.759 22.336 208.121 22.112C208.484 21.888 208.767 21.576 208.969 21.176C209.172 20.7707 209.273 20.296 209.273 19.752C209.273 19.208 209.172 18.7387 208.969 18.344C208.767 17.944 208.484 17.6347 208.121 17.416C207.759 17.1973 207.335 17.088 206.849 17.088C206.369 17.088 205.945 17.1973 205.577 17.416C205.215 17.6347 204.932 17.944 204.729 18.344C204.527 18.7387 204.425 19.208 204.425 19.752C204.425 20.296 204.527 20.7707 204.729 21.176C204.932 21.576 205.215 21.888 205.577 22.112C205.945 22.336 206.369 22.448 206.849 22.448ZM216.054 24.176C215.419 24.176 214.862 24.0773 214.382 23.88C213.902 23.6773 213.526 23.3867 213.254 23.008C212.982 22.6293 212.846 22.1733 212.846 21.64C212.846 21.0587 213.003 20.5813 213.318 20.208C213.638 19.8293 214.067 19.5387 214.606 19.336C215.145 19.128 215.742 18.9947 216.398 18.936C217.369 18.84 218.046 18.7493 218.43 18.664C218.819 18.5733 219.014 18.4293 219.014 18.232C219.014 18.2267 219.014 18.224 219.014 18.224C219.014 18.2187 219.014 18.216 219.014 18.216C219.014 17.8427 218.846 17.5547 218.51 17.352C218.174 17.1493 217.699 17.048 217.086 17.048C216.441 17.048 215.945 17.1627 215.598 17.392C215.257 17.616 215.086 17.9733 215.086 18.464H213.006C213.006 17.7973 213.182 17.2347 213.534 16.776C213.891 16.312 214.379 15.96 214.998 15.72C215.617 15.48 216.318 15.36 217.102 15.36C217.833 15.36 218.502 15.4693 219.11 15.688C219.718 15.9067 220.206 16.2373 220.574 16.68C220.942 17.1227 221.126 17.6747 221.126 18.336C221.126 18.448 221.126 18.56 221.126 18.672C221.126 18.784 221.126 18.896 221.126 19.008V22.208C221.126 22.4107 221.131 22.6107 221.142 22.808C221.158 23 221.187 23.1733 221.23 23.328C221.283 23.4987 221.347 23.6427 221.422 23.76C221.497 23.8773 221.555 23.9573 221.598 24H219.518C219.481 23.9627 219.427 23.8907 219.358 23.784C219.294 23.672 219.235 23.544 219.182 23.4C219.129 23.24 219.089 23.0693 219.062 22.888C219.035 22.7013 219.022 22.496 219.022 22.272L219.438 22.56C219.278 22.8853 219.033 23.1707 218.702 23.416C218.377 23.656 217.987 23.8427 217.534 23.976C217.081 24.1093 216.587 24.176 216.054 24.176ZM216.566 22.52C217.003 22.52 217.409 22.4453 217.782 22.296C218.155 22.1467 218.457 21.9173 218.686 21.608C218.915 21.2933 219.03 20.8907 219.03 20.4V19.264L219.542 19.84C219.201 19.968 218.79 20.0747 218.31 20.16C217.83 20.24 217.345 20.304 216.854 20.352C216.225 20.4107 215.75 20.52 215.43 20.68C215.115 20.84 214.958 21.1013 214.958 21.464C214.958 21.816 215.091 22.08 215.358 22.256C215.625 22.432 216.027 22.52 216.566 22.52ZM226.607 24.176C225.909 24.176 225.261 24.008 224.663 23.672C224.071 23.3307 223.597 22.8293 223.239 22.168C222.882 21.5067 222.703 20.6933 222.703 19.728C222.703 18.7893 222.885 17.9947 223.247 17.344C223.615 16.6933 224.095 16.2 224.687 15.864C225.285 15.528 225.925 15.36 226.607 15.36C227.274 15.36 227.89 15.5253 228.455 15.856C229.021 16.1813 229.474 16.6347 229.815 17.216C230.157 17.7973 230.327 18.464 230.327 19.216C230.327 19.2373 230.327 19.2587 230.327 19.28C230.327 19.3013 230.327 19.3227 230.327 19.344L229.287 19.368C229.287 19.352 229.287 19.336 229.287 19.32C229.287 19.2987 229.287 19.28 229.287 19.264C229.287 18.8427 229.181 18.4747 228.967 18.16C228.759 17.8453 228.487 17.6 228.151 17.424C227.821 17.2427 227.469 17.152 227.095 17.152C226.482 17.152 225.959 17.36 225.527 17.776C225.095 18.1867 224.879 18.8373 224.879 19.728C224.879 20.6133 225.095 21.2667 225.527 21.688C225.959 22.1093 226.482 22.32 227.095 22.32C227.485 22.32 227.845 22.2267 228.175 22.04C228.506 21.8533 228.773 21.5973 228.975 21.272C229.183 20.9413 229.287 20.5627 229.287 20.136L230.327 20.184C230.327 20.9307 230.159 21.608 229.823 22.216C229.493 22.8187 229.047 23.296 228.487 23.648C227.927 24 227.301 24.176 226.607 24.176ZM229.287 24V11.496H231.399V24H229.287Z" fill="white"/>
<path d="M2.112 51H0.81V42.15H3.474C4.154 42.15 4.724 42.278 5.184 42.534C5.648 42.79 5.996 43.136 6.228 43.572C6.464 44.004 6.582 44.488 6.582 45.024C6.582 45.56 6.462 46.054 6.222 46.506C5.986 46.954 5.636 47.314 5.172 47.586C4.708 47.858 4.142 47.994 3.474 47.994H2.112V51ZM2.112 47.55L1.524 46.914H3.324C3.748 46.914 4.104 46.838 4.392 46.686C4.684 46.53 4.904 46.31 5.052 46.026C5.2 45.742 5.274 45.408 5.274 45.024C5.274 44.64 5.202 44.314 5.058 44.046C4.914 43.778 4.698 43.576 4.41 43.44C4.122 43.3 3.76 43.23 3.324 43.23H1.524L2.112 42.546V47.55ZM10.6917 51.12C10.0357 51.12 9.45572 50.978 8.95172 50.694C8.45172 50.41 8.05972 50.02 7.77572 49.524C7.49572 49.024 7.35572 48.452 7.35572 47.808C7.35572 47.168 7.49572 46.602 7.77572 46.11C8.05972 45.614 8.45172 45.228 8.95172 44.952C9.45572 44.672 10.0357 44.532 10.6917 44.532C11.3477 44.532 11.9257 44.672 12.4257 44.952C12.9297 45.228 13.3217 45.614 13.6017 46.11C13.8857 46.602 14.0277 47.168 14.0277 47.808C14.0277 48.452 13.8857 49.024 13.6017 49.524C13.3217 50.02 12.9297 50.41 12.4257 50.694C11.9257 50.978 11.3477 51.12 10.6917 51.12ZM10.6917 50.004C11.0917 50.004 11.4437 49.914 11.7477 49.734C12.0517 49.554 12.2897 49.3 12.4617 48.972C12.6337 48.64 12.7197 48.252 12.7197 47.808C12.7197 47.368 12.6337 46.986 12.4617 46.662C12.2897 46.338 12.0517 46.088 11.7477 45.912C11.4437 45.736 11.0917 45.648 10.6917 45.648C10.2957 45.648 9.94372 45.736 9.63572 45.912C9.33172 46.088 9.09372 46.338 8.92172 46.662C8.74972 46.986 8.66372 47.368 8.66372 47.808C8.66372 48.252 8.74972 48.64 8.92172 48.972C9.09372 49.3 9.33172 49.554 9.63572 49.734C9.94372 49.914 10.2957 50.004 10.6917 50.004ZM20.4489 51L18.8169 44.628H19.8729L21.4389 50.526H21.2169L22.2369 44.628H23.5869L22.2429 51H20.4489ZM16.0989 51L14.7489 44.628H16.0989L17.1309 50.526H16.9029L18.4569 44.628H19.5129L17.9049 51H16.0989ZM25.1031 48.27V47.256H29.7951L29.6151 47.556C29.6151 47.532 29.6151 47.508 29.6151 47.484C29.6151 47.456 29.6151 47.432 29.6151 47.412C29.6151 47.088 29.5451 46.79 29.4051 46.518C29.2651 46.242 29.0551 46.022 28.7751 45.858C28.4991 45.69 28.1531 45.606 27.7371 45.606C27.3211 45.606 26.9551 45.696 26.6391 45.876C26.3271 46.052 26.0831 46.304 25.9071 46.632C25.7351 46.956 25.6491 47.346 25.6491 47.802C25.6491 48.266 25.7331 48.666 25.9011 49.002C26.0691 49.334 26.3111 49.59 26.6271 49.77C26.9431 49.95 27.3211 50.04 27.7611 50.04C28.0691 50.04 28.3351 50.01 28.5591 49.95C28.7871 49.886 28.9731 49.802 29.1171 49.698C29.2651 49.594 29.3771 49.482 29.4531 49.362C29.5291 49.238 29.5731 49.116 29.5851 48.996H30.8811C30.8571 49.256 30.7711 49.514 30.6231 49.77C30.4791 50.022 30.2731 50.252 30.0051 50.46C29.7411 50.664 29.4171 50.828 29.0331 50.952C28.6531 51.072 28.2151 51.132 27.7191 51.132C27.0551 51.132 26.4731 50.992 25.9731 50.712C25.4731 50.432 25.0831 50.044 24.8031 49.548C24.5231 49.048 24.3831 48.476 24.3831 47.832C24.3831 47.176 24.5251 46.6 24.8091 46.104C25.0931 45.608 25.4871 45.222 25.9911 44.946C26.4951 44.666 27.0731 44.526 27.7251 44.526C28.3891 44.526 28.9631 44.666 29.4471 44.946C29.9351 45.226 30.3111 45.612 30.5751 46.104C30.8391 46.596 30.9711 47.162 30.9711 47.802C30.9711 47.878 30.9691 47.966 30.9651 48.066C30.9611 48.166 30.9551 48.234 30.9471 48.27H25.1031ZM32.4223 51V44.628H33.7243V46.662L33.3763 46.506C33.4043 46.246 33.4703 45.998 33.5743 45.762C33.6783 45.526 33.8163 45.316 33.9883 45.132C34.1643 44.944 34.3803 44.796 34.6363 44.688C34.8923 44.58 35.1883 44.526 35.5243 44.526C35.7803 44.526 35.9863 44.546 36.1423 44.586C36.3023 44.626 36.4003 44.658 36.4363 44.682L36.1603 45.906C36.1203 45.878 36.0383 45.842 35.9143 45.798C35.7943 45.754 35.6263 45.732 35.4103 45.732C35.0823 45.732 34.8103 45.79 34.5943 45.906C34.3783 46.022 34.2063 46.176 34.0783 46.368C33.9503 46.56 33.8583 46.77 33.8023 46.998C33.7503 47.222 33.7243 47.448 33.7243 47.676V51H32.4223ZM37.8296 48.27V47.256H42.5216L42.3416 47.556C42.3416 47.532 42.3416 47.508 42.3416 47.484C42.3416 47.456 42.3416 47.432 42.3416 47.412C42.3416 47.088 42.2716 46.79 42.1316 46.518C41.9916 46.242 41.7816 46.022 41.5016 45.858C41.2256 45.69 40.8796 45.606 40.4636 45.606C40.0476 45.606 39.6816 45.696 39.3656 45.876C39.0536 46.052 38.8096 46.304 38.6336 46.632C38.4616 46.956 38.3756 47.346 38.3756 47.802C38.3756 48.266 38.4596 48.666 38.6276 49.002C38.7956 49.334 39.0376 49.59 39.3536 49.77C39.6696 49.95 40.0476 50.04 40.4876 50.04C40.7956 50.04 41.0616 50.01 41.2856 49.95C41.5136 49.886 41.6996 49.802 41.8436 49.698C41.9916 49.594 42.1036 49.482 42.1796 49.362C42.2556 49.238 42.2996 49.116 42.3116 48.996H43.6076C43.5836 49.256 43.4976 49.514 43.3496 49.77C43.2056 50.022 42.9996 50.252 42.7316 50.46C42.4676 50.664 42.1436 50.828 41.7596 50.952C41.3796 51.072 40.9416 51.132 40.4456 51.132C39.7816 51.132 39.1996 50.992 38.6996 50.712C38.1996 50.432 37.8096 50.044 37.5296 49.548C37.2496 49.048 37.1096 48.476 37.1096 47.832C37.1096 47.176 37.2516 46.6 37.5356 46.104C37.8196 45.608 38.2136 45.222 38.7176 44.946C39.2216 44.666 39.7996 44.526 40.4516 44.526C41.1156 44.526 41.6896 44.666 42.1736 44.946C42.6616 45.226 43.0376 45.612 43.3016 46.104C43.5656 46.596 43.6976 47.162 43.6976 47.802C43.6976 47.878 43.6956 47.966 43.6916 48.066C43.6876 48.166 43.6816 48.234 43.6736 48.27H37.8296ZM47.7889 51.126C47.2649 51.126 46.7829 51 46.3429 50.748C45.9029 50.492 45.5509 50.116 45.2869 49.62C45.0229 49.124 44.8909 48.518 44.8909 47.802C44.8909 47.102 45.0249 46.508 45.2929 46.02C45.5609 45.532 45.9149 45.162 46.3549 44.91C46.7949 44.654 47.2729 44.526 47.7889 44.526C48.2849 44.526 48.7449 44.646 49.1689 44.886C49.5969 45.126 49.9409 45.46 50.2009 45.888C50.4609 46.312 50.5909 46.802 50.5909 47.358C50.5909 47.374 50.5909 47.39 50.5909 47.406C50.5909 47.418 50.5909 47.43 50.5909 47.442L49.8349 47.466C49.8349 47.454 49.8349 47.442 49.8349 47.43C49.8349 47.414 49.8349 47.4 49.8349 47.388C49.8349 47.056 49.7509 46.762 49.5829 46.506C49.4149 46.246 49.1929 46.042 48.9169 45.894C48.6449 45.742 48.3549 45.666 48.0469 45.666C47.5309 45.666 47.0989 45.84 46.7509 46.188C46.4029 46.532 46.2289 47.07 46.2289 47.802C46.2289 48.53 46.4029 49.07 46.7509 49.422C47.1029 49.77 47.5349 49.944 48.0469 49.944C48.3669 49.944 48.6629 49.868 48.9349 49.716C49.2069 49.56 49.4249 49.348 49.5889 49.08C49.7529 48.812 49.8349 48.506 49.8349 48.162L50.5909 48.192C50.5909 48.744 50.4649 49.242 50.2129 49.686C49.9649 50.13 49.6289 50.482 49.2049 50.742C48.7849 50.998 48.3129 51.126 47.7889 51.126ZM49.8349 51V41.622H51.1429V51H49.8349ZM59.1669 51.126C58.6709 51.126 58.2109 51.002 57.7869 50.754C57.3629 50.502 57.0189 50.158 56.7549 49.722C56.4949 49.286 56.3649 48.792 56.3649 48.24C56.3649 48.224 56.3649 48.212 56.3649 48.204C56.3649 48.192 56.3649 48.18 56.3649 48.168L57.1209 48.15C57.1209 48.158 57.1209 48.168 57.1209 48.18C57.1209 48.188 57.1209 48.198 57.1209 48.21C57.1209 48.538 57.2049 48.834 57.3729 49.098C57.5449 49.358 57.7669 49.564 58.0389 49.716C58.3109 49.868 58.6029 49.944 58.9149 49.944C59.4269 49.944 59.8569 49.77 60.2049 49.422C60.5569 49.07 60.7329 48.53 60.7329 47.802C60.7329 47.07 60.5589 46.532 60.2109 46.188C59.8629 45.84 59.4309 45.666 58.9149 45.666C58.6029 45.666 58.3109 45.742 58.0389 45.894C57.7669 46.042 57.5449 46.246 57.3729 46.506C57.2049 46.762 57.1209 47.056 57.1209 47.388L56.3649 47.358C56.3649 46.802 56.4949 46.312 56.7549 45.888C57.0189 45.46 57.3629 45.126 57.7869 44.886C58.2109 44.646 58.6709 44.526 59.1669 44.526C59.6829 44.526 60.1609 44.654 60.6009 44.91C61.0409 45.162 61.3949 45.532 61.6629 46.02C61.9349 46.508 62.0709 47.102 62.0709 47.802C62.0709 48.518 61.9389 49.124 61.6749 49.62C61.4109 50.116 61.0589 50.492 60.6189 50.748C60.1789 51 59.6949 51.126 59.1669 51.126ZM55.8129 51V41.622H57.1209V51H55.8129ZM63.4549 53.712C63.2829 53.712 63.1249 53.702 62.9809 53.682C62.8409 53.666 62.7549 53.65 62.7229 53.634V52.572C62.7749 52.596 62.8609 52.616 62.9809 52.632C63.1049 52.648 63.2329 52.656 63.3649 52.656C63.6009 52.656 63.8029 52.608 63.9709 52.512C64.1429 52.416 64.2869 52.282 64.4029 52.11C64.5229 51.942 64.6189 51.75 64.6909 51.534L64.8529 51.054L62.6569 44.628H64.0129L65.6509 50.028H65.4829L67.0789 44.628H68.4169L66.1309 51.468C65.9909 51.896 65.8189 52.278 65.6149 52.614C65.4109 52.954 65.1389 53.222 64.7989 53.418C64.4589 53.614 64.0109 53.712 63.4549 53.712ZM75.643 42.15C76.215 42.15 76.693 42.23 77.077 42.39C77.465 42.546 77.759 42.782 77.959 43.098C78.159 43.41 78.259 43.8 78.259 44.268C78.259 44.716 78.167 45.094 77.983 45.402C77.803 45.706 77.571 45.938 77.287 46.098C77.007 46.258 76.719 46.348 76.423 46.368C76.743 46.376 77.059 46.452 77.371 46.596C77.687 46.736 77.947 46.964 78.151 47.28C78.355 47.592 78.457 48.01 78.457 48.534C78.457 49.038 78.355 49.476 78.151 49.848C77.951 50.216 77.641 50.5 77.221 50.7C76.801 50.9 76.261 51 75.601 51H72.517V42.15H75.643ZM73.771 46.278L73.333 45.87H75.133C75.717 45.87 76.167 45.75 76.483 45.51C76.799 45.27 76.957 44.926 76.957 44.478C76.957 44.174 76.891 43.932 76.759 43.752C76.627 43.568 76.437 43.436 76.189 43.356C75.945 43.272 75.655 43.23 75.319 43.23H73.183L73.771 42.546V46.278ZM75.349 49.92C75.909 49.92 76.345 49.796 76.657 49.548C76.973 49.296 77.131 48.934 77.131 48.462C77.131 48.178 77.079 47.94 76.975 47.748C76.875 47.552 76.737 47.396 76.561 47.28C76.385 47.164 76.181 47.08 75.949 47.028C75.717 46.972 75.469 46.944 75.205 46.944H73.333L73.771 46.536V50.604L73.183 49.92H75.349ZM79.959 51V42.15H81.243V51H79.959ZM89.1281 42.15H91.3541V51H90.1181V43.062L90.1541 43.074L88.0721 51H86.2841L84.1841 43.068L84.2201 43.05V51H82.9781V42.15H85.2041L87.1901 50.16H87.1301L89.1281 42.15ZM96.1917 51.12C95.5357 51.12 94.9557 50.978 94.4517 50.694C93.9517 50.41 93.5597 50.02 93.2757 49.524C92.9957 49.024 92.8557 48.452 92.8557 47.808C92.8557 47.168 92.9957 46.602 93.2757 46.11C93.5597 45.614 93.9517 45.228 94.4517 44.952C94.9557 44.672 95.5357 44.532 96.1917 44.532C96.8477 44.532 97.4257 44.672 97.9257 44.952C98.4297 45.228 98.8217 45.614 99.1017 46.11C99.3857 46.602 99.5277 47.168 99.5277 47.808C99.5277 48.452 99.3857 49.024 99.1017 49.524C98.8217 50.02 98.4297 50.41 97.9257 50.694C97.4257 50.978 96.8477 51.12 96.1917 51.12ZM96.1917 50.004C96.5917 50.004 96.9437 49.914 97.2477 49.734C97.5517 49.554 97.7897 49.3 97.9617 48.972C98.1337 48.64 98.2197 48.252 98.2197 47.808C98.2197 47.368 98.1337 46.986 97.9617 46.662C97.7897 46.338 97.5517 46.088 97.2477 45.912C96.9437 45.736 96.5917 45.648 96.1917 45.648C95.7957 45.648 95.4437 45.736 95.1357 45.912C94.8317 46.088 94.5937 46.338 94.4217 46.662C94.2497 46.986 94.1637 47.368 94.1637 47.808C94.1637 48.252 94.2497 48.64 94.4217 48.972C94.5937 49.3 94.8317 49.554 95.1357 49.734C95.4437 49.914 95.7957 50.004 96.1917 50.004ZM104.331 51.126C103.835 51.126 103.375 51.002 102.951 50.754C102.527 50.502 102.183 50.158 101.919 49.722C101.659 49.286 101.529 48.792 101.529 48.24C101.529 48.224 101.529 48.212 101.529 48.204C101.529 48.192 101.529 48.18 101.529 48.168L102.285 48.15C102.285 48.158 102.285 48.168 102.285 48.18C102.285 48.188 102.285 48.198 102.285 48.21C102.285 48.538 102.369 48.834 102.537 49.098C102.709 49.358 102.931 49.564 103.203 49.716C103.475 49.868 103.767 49.944 104.079 49.944C104.591 49.944 105.021 49.77 105.369 49.422C105.721 49.07 105.897 48.53 105.897 47.802C105.897 47.07 105.723 46.532 105.375 46.188C105.027 45.84 104.595 45.666 104.079 45.666C103.767 45.666 103.475 45.742 103.203 45.894C102.931 46.042 102.709 46.246 102.537 46.506C102.369 46.762 102.285 47.056 102.285 47.388L101.529 47.358C101.529 46.802 101.659 46.312 101.919 45.888C102.183 45.46 102.527 45.126 102.951 44.886C103.375 44.646 103.835 44.526 104.331 44.526C104.847 44.526 105.325 44.654 105.765 44.91C106.205 45.162 106.559 45.532 106.827 46.02C107.099 46.508 107.235 47.102 107.235 47.802C107.235 48.518 107.103 49.124 106.839 49.62C106.575 50.116 106.223 50.492 105.783 50.748C105.343 51 104.859 51.126 104.331 51.126ZM100.977 51V41.622H102.285V51H100.977ZM107.668 53.7C107.556 53.7 107.45 53.696 107.35 53.688C107.25 53.68 107.168 53.67 107.104 53.658V52.68C107.168 52.696 107.252 52.71 107.356 52.722C107.456 52.734 107.56 52.74 107.668 52.74C107.92 52.74 108.118 52.702 108.262 52.626C108.41 52.554 108.518 52.458 108.586 52.338C108.658 52.222 108.704 52.092 108.724 51.948C108.748 51.804 108.76 51.664 108.76 51.528V44.628H110.062V51.57C110.062 51.834 110.034 52.092 109.978 52.344C109.922 52.596 109.812 52.824 109.648 53.028C109.488 53.232 109.25 53.394 108.934 53.514C108.618 53.638 108.196 53.7 107.668 53.7ZM109.432 43.308C109.212 43.308 109.02 43.248 108.856 43.128C108.692 43.004 108.61 42.834 108.61 42.618C108.61 42.406 108.692 42.24 108.856 42.12C109.02 41.996 109.212 41.934 109.432 41.934C109.656 41.934 109.848 41.996 110.008 42.12C110.172 42.24 110.254 42.406 110.254 42.618C110.254 42.834 110.172 43.004 110.008 43.128C109.848 43.248 109.656 43.308 109.432 43.308ZM112.267 48.27V47.256H116.959L116.779 47.556C116.779 47.532 116.779 47.508 116.779 47.484C116.779 47.456 116.779 47.432 116.779 47.412C116.779 47.088 116.709 46.79 116.569 46.518C116.429 46.242 116.219 46.022 115.939 45.858C115.663 45.69 115.317 45.606 114.901 45.606C114.485 45.606 114.119 45.696 113.803 45.876C113.491 46.052 113.247 46.304 113.071 46.632C112.899 46.956 112.813 47.346 112.813 47.802C112.813 48.266 112.897 48.666 113.065 49.002C113.233 49.334 113.475 49.59 113.791 49.77C114.107 49.95 114.485 50.04 114.925 50.04C115.233 50.04 115.499 50.01 115.723 49.95C115.951 49.886 116.137 49.802 116.281 49.698C116.429 49.594 116.541 49.482 116.617 49.362C116.693 49.238 116.737 49.116 116.749 48.996H118.045C118.021 49.256 117.935 49.514 117.787 49.77C117.643 50.022 117.437 50.252 117.169 50.46C116.905 50.664 116.581 50.828 116.197 50.952C115.817 51.072 115.379 51.132 114.883 51.132C114.219 51.132 113.637 50.992 113.137 50.712C112.637 50.432 112.247 50.044 111.967 49.548C111.687 49.048 111.547 48.476 111.547 47.832C111.547 47.176 111.689 46.6 111.973 46.104C112.257 45.608 112.651 45.222 113.155 44.946C113.659 44.666 114.237 44.526 114.889 44.526C115.553 44.526 116.127 44.666 116.611 44.946C117.099 45.226 117.475 45.612 117.739 46.104C118.003 46.596 118.135 47.162 118.135 47.802C118.135 47.878 118.133 47.966 118.129 48.066C118.125 48.166 118.119 48.234 118.111 48.27H112.267ZM122.676 51.126C122.036 51.126 121.462 50.992 120.954 50.724C120.45 50.452 120.052 50.066 119.76 49.566C119.472 49.066 119.328 48.478 119.328 47.802C119.328 47.126 119.472 46.544 119.76 46.056C120.052 45.564 120.45 45.186 120.954 44.922C121.462 44.658 122.036 44.526 122.676 44.526C123.16 44.526 123.59 44.6 123.966 44.748C124.342 44.892 124.66 45.084 124.92 45.324C125.18 45.564 125.378 45.828 125.514 46.116C125.65 46.404 125.718 46.692 125.718 46.98C125.718 46.984 125.718 46.99 125.718 46.998C125.718 47.006 125.718 47.014 125.718 47.022H124.428C124.428 47.002 124.426 46.98 124.422 46.956C124.418 46.928 124.414 46.902 124.41 46.878C124.378 46.642 124.286 46.432 124.134 46.248C123.982 46.064 123.782 45.918 123.534 45.81C123.286 45.702 122.996 45.648 122.664 45.648C122.3 45.648 121.964 45.728 121.656 45.888C121.352 46.044 121.108 46.282 120.924 46.602C120.74 46.922 120.648 47.322 120.648 47.802C120.648 48.282 120.738 48.686 120.918 49.014C121.102 49.338 121.346 49.584 121.65 49.752C121.958 49.92 122.296 50.004 122.664 50.004C123.06 50.004 123.384 49.944 123.636 49.824C123.888 49.7 124.078 49.536 124.206 49.332C124.334 49.124 124.408 48.9 124.428 48.66H125.718C125.718 48.948 125.652 49.24 125.52 49.536C125.388 49.828 125.194 50.094 124.938 50.334C124.682 50.574 124.364 50.766 123.984 50.91C123.608 51.054 123.172 51.126 122.676 51.126ZM129.775 51.108C129.563 51.108 129.351 51.086 129.139 51.042C128.931 50.998 128.739 50.918 128.563 50.802C128.391 50.682 128.253 50.512 128.149 50.292C128.045 50.072 127.993 49.784 127.993 49.428C127.993 49.344 127.993 49.256 127.993 49.164C127.993 49.072 127.993 48.978 127.993 48.882V45.708H126.463V44.628H127.267C127.439 44.628 127.573 44.622 127.669 44.61C127.769 44.594 127.841 44.56 127.885 44.508C127.933 44.452 127.963 44.364 127.975 44.244C127.987 44.124 127.993 43.96 127.993 43.752V42.522H129.295V44.628H131.245V45.708H129.295V48.534C129.295 48.614 129.295 48.694 129.295 48.774C129.295 48.854 129.295 48.928 129.295 48.996C129.295 49.316 129.333 49.568 129.409 49.752C129.489 49.936 129.669 50.028 129.949 50.028C130.069 50.028 130.183 50.018 130.291 49.998C130.399 49.978 130.481 49.956 130.537 49.932V50.994C130.465 51.022 130.363 51.048 130.231 51.072C130.099 51.096 129.947 51.108 129.775 51.108Z" fill="#A0A0A0"/>
<defs>
<clipPath id="clip0_14649_93270">
<rect x="132.477" y="10.5" width="17.0455" height="15" rx="1.36364" fill="white"/>
</clipPath>
</defs>
</svg>
